<svg height="512pt" viewBox="0 0 512 512" width="512pt" xmlns="http://www.w3.org/2000/svg"><path d="m256 238.867188c-70.285156 0-127.46875 57.183593-127.46875 127.46875v66.398437c0 8.285156 6.71875 15 15 15h224.9375c8.28125 0 15-6.714844 15-15v-66.398437c0-70.289063-57.183594-127.46875-127.46875-127.46875zm0 0" fill="#ff6426"/><path d="m383.46875 432.734375v-66.402344c0-70.285156-57.183594-127.464843-127.46875-127.464843v208.867187h112.46875c8.28125 0 15-6.714844 15-15zm0 0" fill="#e30058"/><path d="m304.199219 447.734375h-96.398438c-8.285156 0-15-6.71875-15-15v-96.402344c0-8.28125 6.714844-15 15-15h96.398438c8.285156 0 15 6.71875 15 15v96.402344c0 8.285156-6.714844 15-15 15zm0 0" fill="#ffd700"/><path d="m304.199219 321.332031h-48.199219v126.402344h48.199219c8.285156 0 15-6.71875 15-15v-96.402344c0-8.28125-6.714844-15-15-15zm0 0" fill="#ffc200"/><path d="m143.53125 447.734375h-96.398438c-8.285156 0-15-6.71875-15-15v-96.402344c0-8.28125 6.714844-15 15-15h96.398438c8.285156 0 15 6.71875 15 15v96.402344c0 8.285156-6.714844 15-15 15zm0 0" fill="#ffd700"/><path d="m143.53125 321.332031h-48.199219v126.402344h48.199219c8.285156 0 15-6.71875 15-15v-96.402344c0-8.28125-6.714844-15-15-15zm0 0" fill="#ffc200"/><path d="m464.867188 447.734375h-96.402344c-8.28125 0-15-6.71875-15-15v-96.402344c0-8.28125 6.71875-15 15-15h96.402344c8.28125 0 15 6.71875 15 15v96.402344c0 8.285156-6.71875 15-15 15zm0 0" fill="#ffd700"/><path d="m464.867188 321.332031h-48.203126v126.402344h48.203126c8.28125 0 15-6.71875 15-15v-96.402344c0-8.28125-6.71875-15-15-15zm0 0" fill="#ffc200"/><path d="m256.015625 238.867188c-43.730469 0-79.28125-35.550782-79.28125-79.25v-32.148438c0-8.285156 6.714844-15 15-15h128.53125c8.285156 0 15 6.714844 15 15v32.148438c0 43.699218-35.550781 79.25-79.25 79.25zm0 0" fill="#ffe6dd"/><path d="m47.132812 417.734375h417.734376v94.265625h-417.734376zm0 0" fill="#0066ae"/><path d="m256 417.734375h208.867188v94.265625h-208.867188zm0 0" fill="#004984"/><path d="m464.867188 447.734375h-417.734376c-9.445312 0-17.132812 7.683594-17.132812 17.132813 0 9.445312 7.6875 17.132812 17.132812 17.132812h417.734376c9.445312 0 17.132812-7.6875 17.132812-17.132812 0-9.445313-7.6875-17.132813-17.132812-17.132813zm0 0" fill="#003365"/><path d="m482 464.867188c0-9.445313-7.6875-17.132813-17.132812-17.132813h-208.867188v34.265625h208.867188c9.445312 0 17.132812-7.6875 17.132812-17.132812zm0 0" fill="#000b34"/><path d="m464.867188 512c-25.988282 0-47.132813-21.144531-47.132813-47.132812 0-25.988282 21.144531-47.132813 47.132813-47.132813 25.988281 0 47.132812 21.144531 47.132812 47.132813 0 25.988281-21.144531 47.132812-47.132812 47.132812zm0 0" fill="#003365"/><path d="m47.132812 512c-25.988281 0-47.132812-21.144531-47.132812-47.132812 0-25.988282 21.144531-47.132813 47.132812-47.132813 25.988282 0 47.132813 21.144531 47.132813 47.132813 0 25.988281-21.144531 47.132812-47.132813 47.132812zm0 0" fill="#004984"/><path d="m256 512c-25.988281 0-47.132812-21.144531-47.132812-47.132812 0-25.988282 21.144531-47.132813 47.132812-47.132813s47.132812 21.144531 47.132812 47.132813c0 25.988281-21.144531 47.132812-47.132812 47.132812zm0 0" fill="#004984"/><path d="m47.132812 447.734375c-9.445312 0-17.132812 7.683594-17.132812 17.132813 0 9.445312 7.6875 17.132812 17.132812 17.132812 9.445313 0 17.132813-7.6875 17.132813-17.132812 0-9.445313-7.683594-17.132813-17.132813-17.132813zm0 0" fill="#9be4ff"/><path d="m464.867188 447.734375c-9.445313 0-17.132813 7.683594-17.132813 17.132813 0 9.445312 7.683594 17.132812 17.132813 17.132812 9.449218 0 17.132812-7.6875 17.132812-17.132812 0-9.445313-7.6875-17.132813-17.132812-17.132813zm0 0" fill="#57caff"/><path d="m303.132812 464.867188c0-25.988282-21.144531-47.132813-47.132812-47.132813v94.265625c25.988281 0 47.132812-21.144531 47.132812-47.132812zm0 0" fill="#003365"/><path d="m256 447.734375c-9.445312 0-17.132812 7.683594-17.132812 17.132813 0 9.445312 7.6875 17.132812 17.132812 17.132812s17.132812-7.6875 17.132812-17.132812c0-9.445313-7.6875-17.132813-17.132812-17.132813zm0 0" fill="#9be4ff"/><path d="m273.132812 464.867188c0-9.445313-7.6875-17.132813-17.132812-17.132813v34.265625c9.445312 0 17.132812-7.6875 17.132812-17.132812zm0 0" fill="#57caff"/><path d="m335.265625 159.617188v-32.148438c0-8.285156-6.714844-15-15-15h-64.265625v126.398438h.015625c43.699219 0 79.25-35.550782 79.25-79.25zm0 0" fill="#ffd3c9"/><path d="m336.332031 127.46875h-160.664062c-8.285157 0-15-6.71875-15-15v-1.085938c0-52.558593 42.757812-95.316406 95.316406-95.316406 52.589844 0 95.347656 42.757813 95.347656 95.316406v1.085938c0 8.28125-6.714843 15-15 15zm0 0" fill="#ffc200"/><path d="m351.332031 112.46875v-1.085938c0-52.550781-42.75-95.308593-95.332031-95.316406v111.402344h80.332031c8.285157 0 15-6.71875 15-15zm0 0" fill="#ff9a00"/><path d="m352.398438 142.46875h-192.796876c-8.285156 0-15-6.71875-15-15 0-8.285156 6.714844-15 15-15h192.796876c8.285156 0 15 6.714844 15 15 0 8.28125-6.714844 15-15 15zm0 0" fill="#ff9a00"/><path d="m367.398438 127.46875c0-8.285156-6.714844-15-15-15h-96.398438v30h96.398438c8.285156 0 15-6.71875 15-15zm0 0" fill="#f60"/><path d="m256 78.199219c-8.285156 0-15-6.714844-15-15v-48.199219c0-8.285156 6.714844-15 15-15s15 6.714844 15 15v48.199219c0 8.285156-6.714844 15-15 15zm0 0" fill="#ffd700"/><path d="m271 63.199219v-48.199219c0-8.285156-6.714844-15-15-15v78.199219c8.285156 0 15-6.714844 15-15zm0 0" fill="#ffc200"/></svg>