<svg height="496pt" viewBox="0 0 496 496" width="496pt" xmlns="http://www.w3.org/2000/svg"><path d="m488 248c0 132.546875-107.453125 240-240 240s-240-107.453125-240-240 107.453125-240 240-240 240 107.453125 240 240zm0 0" fill="#85d3c1"/><path d="m360 460.238281c-33.441406 17.761719-71.519531 27.761719-112 27.761719v-56l40-40v-24h16l32-32 .960938-3.761719 42.71875 10.640625c21.359374 5.359375 36.320312 24.5625 36.320312 46.5625v26.558594l1.679688 1.679688c-16.878907 16.878906-36.320313 31.359374-57.679688 42.558593zm0 0" fill="#f9d48a"/><path d="m136 460.238281c-21.359375-11.199219-40.800781-25.679687-57.679688-42.558593l1.679688-1.679688v-26.558594c0-22 14.960938-41.203125 36.320312-46.5625l42.71875-10.640625.960938 3.761719 32 32h16v24l40 40v56c-40.480469 0-78.558594-10-112-27.761719zm0 0" fill="#f9d48a"/><path d="m336.960938 332.238281-.960938 3.761719-32 32h-16v24l-40 40v-72l40-40zm0 0" fill="#ff958a"/><path d="m248 360v72l-40-40v-24h-16l-32-32-.960938-3.761719 48.960938-12.238281zm0 0" fill="#ff958a"/><path d="m288 285.28125v34.71875l-40 40-40-40v-34.71875c11.761719 6.796875 25.441406 10.71875 40 10.71875s28.238281-3.921875 40-10.71875zm0 0" fill="#f5f7fa"/><path d="m359.921875 115.761719 9.359375 2.476562c4 1.042969 6.71875 4.640625 6.71875 8.722657 0 4.960937-4.078125 9.039062-9.039062 9.039062h-237.921876c-4.960937 0-9.039062-4.078125-9.039062-9.039062 0-4.082032 2.71875-7.679688 6.71875-8.722657l9.359375-2.476562 96.160156-25.683594c5.203125-1.359375 10.480469-2.078125 15.761719-2.078125s10.558594.71875 15.761719 2.078125zm0 0" fill="#f5f7fa"/><path d="m360 136v72c0-17.679688-14.320312-32-32-32v-40zm0 0" fill="#f9d48a"/><path d="m328 176c17.679688 0 32 14.320312 32 32s-14.320312 32-32 32h-3.679688c2.398438-7.601562 3.679688-15.601562 3.679688-24zm0 0" fill="#f5f7fa"/><path d="m324.320312 240c-6.082031 19.28125-19.199218 35.359375-36.320312 45.28125-11.761719 6.796875-25.441406 10.71875-40 10.71875s-28.238281-3.921875-40-10.71875c-6.078125-3.519531-11.601562-7.761719-16.558594-12.722656-8.960937-8.957032-15.839844-20.078125-19.761718-32.558594-2.398438-7.601562-3.679688-15.601562-3.679688-24v-24c4.878906 9.839844 14.960938 16 25.921875 16h26.078125c7.679688 0 15.039062-3.039062 20.480469-8.480469l7.519531-7.519531 7.519531 7.519531c5.441407 5.441407 12.800781 8.480469 20.480469 8.480469h26.078125c10.960937 0 21.042969-6.160156 25.921875-16v24c0 8.398438-1.28125 16.398438-3.679688 24zm0 0" fill="#f5f7fa"/><path d="m328 176v16c-4.878906 9.839844-14.960938 16-25.921875 16h-26.078125c-7.679688 0-15.039062-3.039062-20.480469-8.480469l-7.519531-7.519531-7.519531 7.519531c-5.441407 5.441407-12.800781 8.480469-20.480469 8.480469h-26.078125c-10.960937 0-21.042969-6.160156-25.921875-16v-56h160zm0 0" fill="#ff958a"/><path d="m327.199219 40.800781c-14.960938-14.878906-34.078125-25.601562-55.4375-30.242187-5.839844-1.277344-11.839844-2.078125-18-2.398438-1.921875-.160156-3.839844-.160156-5.761719-.160156s-3.839844 0-5.761719.160156c-6.160156.320313-12.160156 1.121094-18 2.398438-49.117187 10.5625-86.238281 53.441406-88.160156 105.203125l96.160156-25.683594c5.203125-1.359375 10.480469-2.078125 15.761719-2.078125s10.558594.71875 15.761719 2.078125l96.160156 25.683594c-1.121094-29.203125-13.441406-55.601563-32.722656-74.960938zm0 0" fill="#f9d48a"/><path d="m171.679688 240h-3.679688c-17.679688 0-32-14.320312-32-32s14.320312-32 32-32v40c0 8.398438 1.28125 16.398438 3.679688 24zm0 0" fill="#f5f7fa"/><path d="m168 136v40c-17.679688 0-32 14.320312-32 32v-72zm0 0" fill="#f9d48a"/><path d="m248 264c17.648438 0 32-14.351562 32-32h-16c0 8.824219-7.175781 16-16 16s-16-7.175781-16-16h-16c0 17.648438 14.351562 32 32 32zm0 0"/><path d="m216 176c0 4.417969-3.582031 8-8 8s-8-3.582031-8-8 3.582031-8 8-8 8 3.582031 8 8zm0 0"/><path d="m296 176c0 4.417969-3.582031 8-8 8s-8-3.582031-8-8 3.582031-8 8-8 8 3.582031 8 8zm0 0"/><path d="m208 440h16v16h-16zm0 0"/><path d="m272 440h16v16h-16zm0 0"/><path d="m248 0c-136.753906 0-248 111.257812-248 248s111.246094 248 248 248 248-111.257812 248-248-111.246094-248-248-248zm232 248c0 57.585938-21.136719 110.296875-56 150.894531v-9.421875c0-25.746094-17.449219-48.082031-42.425781-54.328125l-85.574219-21.390625v-24.097656c15.289062-10 27.246094-24.617188 33.960938-41.855469 21.128906-1.046875 38.039062-18.417969 38.039062-39.800781v-64.105469c8.902344-.550781 16-7.902343 16-16.941406 0-7.714844-5.199219-14.488281-12.65625-16.480469l-3.878906-1.03125c-2.777344-31.664062-17.914063-59.769531-40.519532-79.59375 89.175782 32.367188 153.054688 117.9375 153.054688 218.152344zm-128 136v71.289062c-29.054688 14.640626-61.585938 23.335938-96 24.511719v-44.488281l40-40v-19.3125h11.3125l34.34375-34.34375 36.046875 9.015625c17.832031 4.464844 30.296875 20.417969 30.296875 38.808594v26.28125c-12.167969 11.605469-25.542969 21.957031-40 30.726562v-62.488281zm-224 0v62.488281c-14.457031-8.769531-27.832031-19.121093-40-30.726562v-26.28125c0-18.382813 12.464844-34.34375 30.296875-38.808594l36.046875-9.015625 34.34375 34.34375h11.3125v19.3125l40 40v44.488281c-34.414062-1.175781-66.945312-9.871093-96-24.511719v-71.289062zm150.777344-363.34375c6 1.863281 11.734375 4.304688 17.222656 7.175781v36.167969h16v-25.808594c20.558594 16.121094 34.855469 39.777344 38.792969 66.800782l-78.359375-20.894532zm-15.738282-3.441406-6.335937 63.359375c-5.765625-.726563-11.640625-.726563-17.40625 0l-6.335937-63.359375c4.925781-.71875 9.917968-1.214844 15.039062-1.214844s10.113281.496094 15.039062 1.214844zm-79.039062 20.976562v25.808594h16v-36.167969c5.488281-2.871093 11.222656-5.3125 17.222656-7.175781l6.34375 63.449219-78.359375 20.894531c3.9375-27.023438 18.234375-50.679688 38.792969-66.808594zm-55.214844 87.746094 105.558594-28.152344c4.441406-1.183594 9.03125-1.785156 13.65625-1.785156s9.214844.601562 13.664062 1.792969l105.550782 28.144531c.464844.117188.785156.542969.785156 1.015625 0 .574219-.472656 1.046875-1.046875 1.046875h-237.90625c-.574219 0-1.046875-.472656-1.046875-1.046875 0-.472656.320312-.898437.785156-1.015625zm31.214844 42.871094c-5.945312 1.214844-11.328125 3.855468-16 7.390625v-32.199219h16zm16-24.808594h144v45.648438c-3.761719 6.359374-10.414062 10.351562-17.886719 10.351562h-26.121093c-5.59375 0-10.847657-2.175781-14.816407-6.136719l-13.175781-13.175781-13.175781 13.175781c-3.96875 3.960938-9.222657 6.136719-14.816407 6.136719h-26.121093c-7.472657 0-14.125-3.992188-17.886719-10.351562zm160 0h16v32.207031c-4.671875-3.535156-10.054688-6.183593-16-7.390625zm0 72v-30.527344c9.289062 3.3125 16 12.113282 16 22.527344 0 10.921875-7.375 20.054688-17.367188 22.953125.839844-4.875 1.367188-9.847656 1.367188-14.953125zm-176-30.527344v30.527344c0 5.105469.527344 10.078125 1.367188 14.953125-9.992188-2.898437-17.367188-12.03125-17.367188-22.953125 0-10.414062 6.710938-19.214844 16-22.527344zm16 25.855469c5.367188 2.96875 11.464844 4.671875 17.886719 4.671875h26.121093c9.863282 0 19.144532-3.839844 26.128907-10.824219l1.863281-1.863281 1.863281 1.871094c6.984375 6.976562 16.265625 10.816406 26.128907 10.816406h26.121093c6.429688 0 12.519531-1.703125 17.886719-4.671875v4.671875c0 27.863281-15.945312 52.039062-39.167969 64h-.832031v.398438c-9.65625 4.824218-20.496094 7.601562-32 7.601562s-22.34375-2.777344-32-7.601562v-.398438h-.832031c-23.222657-11.960938-39.167969-36.136719-39.167969-64zm72 92.671875c11.296875 0 22.0625-2.214844 32-6.113281v18.800781l-32 32-32-32v-18.800781c9.9375 3.898437 20.703125 6.113281 32 6.113281zm8 59.3125 34.457031-34.457031 33.101563 8.273437-22.871094 22.871094h-20.6875v28.6875l-24 24zm-50.457031-34.457031 34.457031 34.457031v49.375l-24-24v-28.6875h-20.6875l-22.863281-22.863281zm-36.488281-299.007813c-22.613282 19.832032-37.742188 47.9375-40.519532 79.59375l-3.878906 1.03125c-7.457031 2-12.65625 8.765625-12.65625 16.480469 0 9.039063 7.097656 16.390625 16 16.941406v64.105469c0 21.382812 16.910156 38.753906 38.039062 39.800781 6.714844 17.246094 18.671876 31.863281 33.960938 41.855469v24.097656l-85.574219 21.390625c-24.976562 6.246094-42.425781 28.589844-42.425781 54.335938v9.421875c-34.863281-40.605469-56-93.316406-56-150.902344 0-100.214844 63.878906-185.785156 153.054688-218.152344zm0 0"/></svg>