<?xml version="1.0" encoding="iso-8859-1"?>
<!-- Generator: Adobe Illustrator 16.0.0, SVG Export Plug-In . SVG Version: 6.00 Build 0)  -->
<!DOCTYPE svg PUBLIC "-//W3C//DTD SVG 1.1//EN" "http://www.w3.org/Graphics/SVG/1.1/DTD/svg11.dtd">
<svg version="1.1" id="Capa_1" xmlns="http://www.w3.org/2000/svg" xmlns:xlink="http://www.w3.org/1999/xlink" x="0px" y="0px"
	 width="505.387px" height="505.388px" viewBox="0 0 505.387 505.388" style="enable-background:new 0 0 505.387 505.388;"
	 xml:space="preserve">
<g>
	<path d="M407.363,260.367c-12.374,6.56-26.211,15.224-26.211,15.224c-14.286,7.602-26.574,18.637-38.441,29.51
		c-10.748,9.858-22.118,20.521-31.202,31.996c-1.597,2.018-7.152,5.899-7.239,9.39c-0.525,0.02-1.062-0.057-1.567,0
		c-1.961,0.173-5.786,0.804-5.91-2.17c-0.507-13.655-1.405-27.292-2.821-40.861c-1.567-15.032-3.901-29.863-6.933-44.656
		c-4.045-19.737-17.299-35.075-30.188-49.754c-6.503-7.411-7.487-5.938-6.713-2.295c1.357,6.292,2.601,15.836-2.171,13.693
		c-4.771-2.151-13.856-11.407-22.988-16.495c-9.132-5.077-12.135,1.922-16.084-2.429c-3.959-4.37-9.151,8.31-8.711,15.262
		s-6.005,12.422-4.724,19.144c1.291,6.704-3.356,10.48-1.435,18.131c1.913,7.659-2.964,16.361-3.949,24.394
		c-0.976,8.033-1.396,14.086-2.735,21.104c-1.349,7.038-1.234,20.187,1.319,30.447c0.488,1.941,1.243,3.624,2.19,5.116
		c5.68,8.893,7.574,16.753,11.647,24.729c4.083,7.975,8.367,10.05,10.682,15.558c2.314,5.527,5.307,5.47,8.3,10.185
		c3.002,4.705,3.825,7.373-3.366,15.09c-11.475,12.326-19.067,19.479-19.067,19.479c-36.271,28.869-83.634,51.695-83.634,51.695
		c-22.969,10.403-20.961,13.071-13.541,13.205c10.557,0.191,20.053,3.701,26.153,2.897c6.12-0.803,11.992-0.019,15.214,0.784
		c3.223,0.804,5.021,4.312,8.128,6.838c3.108,2.524,7.009,2.983,9.505,4.351c2.486,1.387,7,5.861,11.963,5.432
		c4.973-0.45,11.035-11.485,15.596-21.009c14.201-29.645,27.626-33.508,27.626-33.508c38.202-11.13,57.365-23.141,57.365-23.141
		c16.133-10.682,26.813-21.965,33.556-30.801c6.396-8.405,13.464-20.206,18.8-18.81c4.58,1.215,8.979,4.274,8.979,4.274
		c0.335,0.239,1.664-11.857,1.646-12.813c-0.125-3.49-0.68-6.952-1.492-10.366c1.932-1.119,3.768-2.84,3.768-2.84
		c2.314-2.219,4.093-4.628,5.422-6.876c2.468-4.169,6.713-10.91,9.295-15.424c2.592-4.542,7.315-8.367,11.781-9.82
		c5.642-1.846,6.043-5.47,6.043-5.47c0.048-0.411,8.568-3.51,9.582-5.212c1.405-2.353-3.299-7.86,0.65-8.253
		c4.169-0.43,8.97-1.396,12.622-3.509c1.521-0.88,3.424-2.372,3.366-4.332c-0.028-0.994-0.87-2.113-1.319-3.175
		c-0.746-1.76,3.356-3.137,4.81-5.212c1.453-2.056,5.059-6.502,8.482-10.308c3.403-3.807,5.766-10.605,7.831-13.483
		c1.979-2.764,4.026-5.021,4.026-5.021c1.425-1.453,2.457-2.61,3.184-3.528C426.057,254.639,416.706,255.423,407.363,260.367z"/>
	<path d="M103.132,240.477c17.767-29.395,23.916-51.551,23.916-51.551c0.956-4.093,2.304-7.114,3.749-9.343
		c3.021-4.704,14-7.994,21.047-11.79c34.789-18.733,34.377-54.832,34.377-54.832c0.268-15.797,7.172-24.862,13.914-29.959
		c6.388-4.819,10.375-7.134,7.019-7.937c-3.356-0.784-7.134-4.82-10.261-7.698c-3.318-3.06-6.837-3.309-6.837-3.309
		c-7.87-0.784-21.946,9.486-29.491,15.559c-3.328-5.623-11.447-11.265-16.352-15.654c-7.487-6.723-16.801-16.868-21.774-29.061
		c-3.012-7.411-5.202-17.834-7.134-15.577c-0.727,0.86-1.549,2.333-2.477,4.781c0,0-1.138,3.213-1.071,7.287
		c0.067,4.093-6.072,1.529-7.555,6.951c-1.482,5.413-5.087,8.271-2.821,13.13c2.266,4.877-3.012,5.785-1.74,11.054
		c0.841,3.434,2.046,5.585,1.884,7.469c-3.108-0.65-4.686-0.507-4.686-0.507c-14.564,1.291-26.622-1.042-35.066-3.701
		c-7.631-2.409-26.957-9.801-21.621-3.863c0.603,0.67,1.339,1.396,2.142,2.152c5.842,5.47,3.557,13.033,10.738,16.581
		c0.058,0.02,0.125,0.058,0.182,0.096c7.191,3.51-0.306,9.84,6.808,13.426c7.115,3.604,1.664,8.195,9.161,10.7
		c7.497,2.524,4.227,9.285,10.93,10.758c6.685,1.492,1.693,5.288,7.029,9.285c5.345,3.997,3.997,7.487,10.098,8.349
		c6.091,0.86,1.913,4.255,7.937,5.508c6.034,1.271,5.288,2.295,7.573,7.641c2.295,5.326,5.298,2.218,2.745,8.214
		c-2.543,5.995-5.307,17.69-11.503,22.729c-9.4,7.66-24.939,15.635-36.07,20.885c-7.239,3.404-20.751,8.31-18.943,13.713
		c1.817,5.393,2.276,11.092,7.268,14.085c4.982,2.975,7.105,6.054,11.475,9.267c4.37,3.213,8.033,6.034,13.35,7.363
		c5.336,1.329,9.189,2.744,14.64,3.682C99.718,247.056,103.132,240.477,103.132,240.477z"/>
	<path d="M462.433,98.876c-1.396,0.152-4.093-0.526-6.053-1.033c-1.961-0.525-3.548-0.937-3.548-0.937
		c-3.691-0.784-6.617,0.22-8.692,1.511c-2.371,1.511-4.312,5.488-5.9,7.468c-1.587,1.999-3.309,3.194-3.309,3.194
		c-13.846,10.213-25.235-6.483-25.235-6.483c-1.568-2.391-3.06-4.839-4.484-7.344c-0.976-1.741-1.951-3.472-2.869-5.25
		c-3.576-6.952-6.426-14.229-5.326-22.166c0.517-3.662,1.291-7.229,0.89-10.93c-0.45-4.198-2.009-8.215-3.691-12.049
		c-1.482-3.347-3.271-6.589-4.973-9.84c-1.836-3.51-4.007-6.952-6.254-10.194c-4.38-5.938-7.535-19.325-7.535-19.325
		c-0.392-1.74-0.822-3.021-1.262-4.017c-0.947-2.113-4.954-2.037-5.613,0.688c-0.211,0.842-0.383,1.74-0.517,2.63
		c-0.421,2.782-2.64,6.368-3.309,9.094c-0.431,1.76-0.449,3.787-0.315,5.585c0.2,2.802-1.588,5.957-2.85,8.463
		c-1.54,3.079-1.1,7.152-0.354,10.289c0.641,2.726,0.564,6.952,0.354,9.744c-0.249,3.548,0.573,7.152,1.491,9.878
		c0.88,2.668,1.272,6.914,1.243,9.716c-0.076,6.856,3.203,13.301,5.776,17.298c1.511,2.353,0.028,4.256-1.023,6.856
		c-1.052,2.611,0.966,6.35,2.964,9.151c1.636,2.295,1.511,2.372-1.052,1.253c-3.041-1.367-6.684-2.333-9.113-3.137
		c-5.059-1.702-10.155-3.213-15.137-5.115c-7.517-2.859-15.473-6.445-21.745-11.619c-1.951-1.74-22.692-19.928-25.283-15.539
		c-2.678,4.542,1.386,9.897,4.79,13.264c1.999,1.979,0.823,4.762,2.181,7.21c1.081,1.979,3.758,4.217,6.11,5.938
		c2.267,1.664,3.232,5.192,5.116,7.286c1.539,1.702,3.987,3.434,6.139,4.781c2.372,1.511,3.634,5.04,5.308,7.306
		c2.275,3.079,7.324,5.757,11.093,7.431c2.562,1.138,4.283,2.802,4.14,4.016c-0.152,1.215,2.143,3.682,4.753,4.686
		c4.217,1.606,10.404,2.897,14.727,3.663c2.754,0.487,3.863,2.878,5.049,5.059c1.033,1.922,2.965,3.347,2.965,3.347
		c6.158,4.073,19.746,4.017,27.167,3.644c2.802-0.153,3.634,1.405,1.797,3.528c-6.368,7.392-13.272,14.344-19.908,21.478
		c-3.156,3.404-6.283,6.817-9.324,10.327c-1.874,2.189-4.59,4.686-5.967,7.191c-0.698,1.291-1.147,2.313-1.425,3.136
		c-0.621,1.817-1.128,4.39-0.946,5.977c0.182,1.607,3.002,0.728,3.911,0.861c0.918,0.134-0.956,2.295-1.033,3.72
		c-0.086,1.568,1.09,2.189,1.09,2.189c0.88,0.373,2.037,0.526,3.108,0.584c1.76,0.095,2.658,0.354,2.658,1.061
		c0,0.335,0.182,0.688,0.727,0.976c0.641,0.297,1.454,0,2.181-0.469c1.08-0.669,2.333-0.372,3.538-0.563s2.897-1.177,3.939-1.606
		c1.052-0.431,1.951,0.258,2.696,1.195c0.736,0.937,3.969,1.74,5.69,0.057c1.721-1.683,2.954-5.804,3.815-8.463
		c1.166-3.528,2.447-6.855,2.447-6.855c2.391-6.168,5.154-12.145,6.369-18.6c0.517-2.764,2.83-5.45,5.594-5.938
		c2.735-0.507,5.709-1.042,6.302-1.195c4.112-0.956,8.281-2.036,11.915-4.236c8.205-4.981,16.333-12.66,21.994-20.396
		c2.82-3.844,7.344-10.93,6.474-16.064c-0.612-3.644-0.842-6.369-0.87-8.387c-0.038-2.802,1.339-7.248,3.433-9.113
		c0.249-0.22,0.526-0.449,0.794-0.669c2.189-1.76,5.154-3.347,5.813-4.408C466.717,98.608,463.81,98.703,462.433,98.876z"/>
</g>
<g>
</g>
<g>
</g>
<g>
</g>
<g>
</g>
<g>
</g>
<g>
</g>
<g>
</g>
<g>
</g>
<g>
</g>
<g>
</g>
<g>
</g>
<g>
</g>
<g>
</g>
<g>
</g>
<g>
</g>
</svg>
