<svg height="512pt" viewBox="0 0 512 512" width="512pt" xmlns="http://www.w3.org/2000/svg"><path d="m512 256c0 141.382812-114.617188 256-256 256-56.925781 0-109.503906-18.578125-152.011719-50-1.054687-.78125-2.109375-1.578125-3.15625-2.371094-61.292969-46.769531-100.832031-120.582031-100.832031-203.628906 0-141.386719 114.613281-256 256-256 141.382812 0 256 114.613281 256 256zm0 0" fill="#fc5b5b"/><path d="m404.070312 139.167969v118.074219c0 9.699218-7.855468 17.566406-17.554687 17.566406h-261.042969c-9.699218 0-17.554687-7.867188-17.554687-17.566406v-118.074219c0-9.695313 7.855469-17.550781 17.554687-17.550781h261.042969c9.699219 0 17.554687 7.855468 17.554687 17.550781zm0 0" fill="#e5ded4"/><path d="m404.070312 139.167969v68.035156c0 9.695313-7.855468 17.5625-17.554687 17.5625h-261.042969c-9.699218 0-17.554687-7.867187-17.554687-17.5625v-68.035156c0-9.695313 7.855469-17.550781 17.554687-17.550781h261.042969c9.699219 0 17.554687 7.855468 17.554687 17.550781zm0 0" fill="#fcf9f4"/><path d="m382.113281 449.578125v29.246094c-37.21875 21.117187-80.257812 33.175781-126.117187 33.175781-27.03125 0-53.070313-4.191406-77.53125-11.953125-17.03125-5.402344-33.300782-12.550781-48.589844-21.222656v-29.246094c0-49.914063 38.441406-90.863281 87.355469-94.8125 2.570312-.210937 5.160156-.316406 7.785156-.316406h61.949219c7.324218 0 14.453125.816406 21.296875 2.382812 42.296875 9.675781 73.851562 47.535157 73.851562 92.746094zm0 0" fill="#125699"/><path d="m382.113281 449.578125v29.246094c-37.21875 21.117187-80.257812 33.175781-126.117187 33.175781-27.03125 0-53.070313-4.191406-77.53125-11.953125v-50.46875c0-52.539063 42.597656-95.128906 95.148437-95.128906h13.351563c52.558594 0 95.148437 42.589843 95.148437 95.128906zm0 0" fill="#2385ec"/><path d="m289.9375 317.800781v41.65625c0 15.25-10.054688 28.140625-23.90625 32.421875-3.171875.980469-6.550781 1.515625-10.042969 1.515625-18.746093 0-33.9375-15.195312-33.9375-33.9375v-41.65625zm0 0" fill="#125699"/><path d="m255.988281 393.394531-42.828125 23.800781-13.03125-60.601562 26.613282-15.675781" fill="#125699"/><path d="m255.988281 393.394531 42.828125 23.800781 13.03125-60.601562-26.613281-15.675781" fill="#125699"/><path d="m262.550781 376.296875v135.617187c-2.183593.054688-4.355469.085938-6.550781.085938s-4.378906-.03125-6.550781-.09375v-135.609375zm0 0" fill="#125699"/><path d="m162.882812 249.535156c0 15.710938-11.476562 28.742188-26.507812 31.160156-2.730469-9.929687-4.1875-20.378906-4.1875-31.160156 0-10.785156 1.457031-21.234375 4.1875-31.160156 15.03125 2.417969 26.507812 15.445312 26.507812 31.160156zm0 0" fill="#e7aa91"/><path d="m349.101562 249.535156c0 15.710938 11.476563 28.742188 26.507813 31.160156 2.730469-9.929687 4.1875-20.378906 4.1875-31.160156 0-10.785156-1.457031-21.234375-4.1875-31.160156-15.03125 2.417969-26.507813 15.445312-26.507813 31.160156zm0 0" fill="#e7aa91"/><path d="m373.433594 173.410156v44.722656c0 58.441407-42.691406 106.925782-98.59375 115.921876-.1875.03125-.386719.0625-.574219.09375-5.945313.949218-12.050781 1.417968-18.277344 1.417968-64.855469 0-117.433593-52.578125-117.433593-117.433594v-44.722656c0-13.65625 2.328124-26.78125 6.632812-38.972656 16.0625-45.703125 59.613281-78.472656 110.800781-78.472656h.011719c6.214844 0 12.328125.480468 18.285156 1.421875 56.171875 8.777343 99.148438 57.382812 99.148438 116.023437zm0 0" fill="#125699"/><path d="m373.433594 173.410156v44.722656c0 58.441407-42.691406 106.925782-98.59375 115.921876-.1875.03125-.386719.0625-.574219.09375-56.175781-8.777344-99.140625-57.386719-99.140625-116.015626v-44.722656c0-58.640625 42.976562-107.246094 99.160156-116.023437 56.171875 8.777343 99.148438 57.382812 99.148438 116.023437zm0 0" fill="#2385ec"/><path d="m383.734375 112.460938v190.664062c0 8.488281-3.972656 16.492188-10.742187 21.609375l-67.148438 50.941406c-4.722656 3.585938-10.472656 5.523438-16.394531 5.523438h-66.910157c-5.921874 0-11.671874-1.9375-16.394531-5.523438l-16.933593-12.847656-50.214844-38.09375c-6.769532-5.117187-10.742188-13.121094-10.742188-21.609375v-190.664062c0-17.660157 17.785156-29.613282 34.21875-23.160157 4.867188 1.910157 9.78125 3.652344 14.742188 5.25 3.972656 1.292969 7.980468 2.46875 11.996094 3.554688 52.742187 14.242187 109.003906 11.296875 160.308593-8.804688 16.433594-6.453125 34.214844 5.5 34.214844 23.160157zm0 0" fill="#484f60"/><g fill="#272f38"><path d="m189.210938 98.105469v264.722656l-50.214844-38.09375c-6.769532-5.117187-10.742188-13.121094-10.742188-21.609375v-190.664062c0-17.660157 17.78125-29.613282 34.21875-23.160157 4.867188 1.910157 9.78125 3.652344 14.738282 5.25 3.972656 1.289063 7.980468 2.46875 12 3.554688zm0 0"/><path d="m255.894531 263.230469c-21.859375 0-43.832031-2.246094-65.304687-6.675781-11.449219-2.363282-19.757813-12.535157-19.757813-24.1875v-36.894532c0-13.601562 11.082031-24.667968 24.703125-24.667968 1.558594 0 3.128906.148437 4.671875.441406 18.328125 3.488281 37.082031 5.253906 55.734375 5.253906 5.691406 0 11.460938-.164062 17.144532-.492188 12.953124-.734374 26.011718-2.34375 38.820312-4.789062 1.527344-.289062 3.082031-.4375 4.628906-.4375 13.574219 0 24.617188 11.074219 24.617188 24.6875v36.894531c0 11.652344-8.300782 21.824219-19.738282 24.1875-21.015624 4.335938-42.511718 6.582031-63.90625 6.675781zm0 0"/><path d="m256.742188 360.300781c0-3.75 3.039062-6.792969 6.789062-6.792969 3.753906 0 6.792969 3.042969 6.792969 6.792969s-3.039063 6.792969-6.792969 6.792969c-3.75 0-6.789062-3.042969-6.789062-6.792969zm0 0"/><path d="m222.570312 367.09375c-.007812 0-.019531 0-.03125 0-3.75 0-6.789062-3.042969-6.789062-6.792969s3.039062-6.792969 6.789062-6.792969h.03125.035157c3.75 0 6.789062 3.042969 6.789062 6.792969s-3.039062 6.792969-6.789062 6.792969c-.011719 0-.023438 0-.035157 0zm0 0"/><path d="m296.53125 356.507812c-2.269531-2.988281-1.683594-7.25 1.304688-9.519531 2.988281-2.265625 7.253906-1.679687 9.519531 1.308594 2.269531 2.988281 1.683593 7.25-1.304688 9.515625-1.222656.929688-2.664062 1.382812-4.097656 1.382812-2.058594 0-4.085937-.933593-5.421875-2.6875zm0 0"/></g><path d="m185.289062 342.140625c-2.988281-2.257813-3.574218-6.519531-1.304687-9.507813 2.257813-2.988281 6.519531-3.574218 9.507813-1.308593 2.988281 2.269531 3.574218 6.523437 1.308593 9.511719-1.339843 1.765624-3.367187 2.695312-5.414062 2.695312-1.433594 0-2.871094-.460938-4.097657-1.390625zm0 0" fill="#484f60"/><path d="m329.140625 331.765625c-2.265625-2.988281-1.679687-7.242187 1.308594-9.507813 2.988281-2.269531 7.25-1.683593 9.519531 1.304688 2.265625 2.988281 1.679688 7.25-1.308594 9.507812-1.230468.941407-2.675781 1.390626-4.105468 1.390626-2.050782 0-4.074219-.929688-5.414063-2.695313zm0 0" fill="#272f38"/><path d="m152.679688 317.40625c-2.988282-2.265625-3.574219-6.527344-1.308594-9.515625 2.269531-2.980469 6.53125-3.574219 9.519531-1.308594 2.988281 2.269531 3.574219 6.53125 1.308594 9.519531-1.339844 1.765626-3.367188 2.6875-5.425781 2.6875-1.429688 0-2.871094-.449218-4.09375-1.382812zm0 0" fill="#484f60"/><path d="m356.046875 300.34375c0-3.761719 3.042969-6.789062 6.792969-6.789062s6.792968 3.027343 6.792968 6.789062c0 3.753906-3.042968 6.792969-6.792968 6.792969-3.753906 0-6.792969-3.039063-6.792969-6.792969zm0 0" fill="#272f38"/><path d="m142.355469 274.421875c0-3.753906 3.039062-6.792969 6.792969-6.792969 3.75 0 6.789062 3.039063 6.789062 6.792969 0 3.75-3.039062 6.789063-6.789062 6.789063-3.753907 0-6.792969-3.039063-6.792969-6.789063zm0 0" fill="#484f60"/><path d="m356.046875 259.417969c0-3.753907 3.042969-6.792969 6.792969-6.792969s6.792968 3.039062 6.792968 6.792969c0 3.75-3.042968 6.789062-6.792968 6.789062-3.753906 0-6.792969-3.039062-6.792969-6.789062zm0 0" fill="#272f38"/><path d="m142.355469 233.492188c0-3.75 3.039062-6.792969 6.792969-6.792969 3.75 0 6.789062 3.042969 6.789062 6.792969s-3.039062 6.792968-6.789062 6.792968c-3.753907 0-6.792969-3.042968-6.792969-6.792968zm0 0" fill="#484f60"/><path d="m356.046875 218.488281c0-3.75 3.042969-6.792969 6.792969-6.792969s6.792968 3.042969 6.792968 6.792969-3.042968 6.792969-6.792968 6.792969c-3.753906 0-6.792969-3.042969-6.792969-6.792969zm0 0" fill="#272f38"/><path d="m142.355469 192.5625c0-3.75 3.039062-6.789062 6.792969-6.789062 3.75 0 6.789062 3.039062 6.789062 6.789062 0 3.753906-3.039062 6.792969-6.789062 6.792969-3.753907 0-6.792969-3.039063-6.792969-6.792969zm0 0" fill="#484f60"/><path d="m356.046875 177.558594c0-3.75 3.042969-6.792969 6.792969-6.792969s6.792968 3.042969 6.792968 6.792969-3.042968 6.792968-6.792968 6.792968c-3.753906 0-6.792969-3.042968-6.792969-6.792968zm0 0" fill="#272f38"/><path d="m142.355469 151.636719c0-3.753907 3.039062-6.792969 6.792969-6.792969 3.75 0 6.789062 3.039062 6.789062 6.792969 0 3.75-3.039062 6.789062-6.789062 6.789062-3.753907 0-6.792969-3.039062-6.792969-6.789062zm0 0" fill="#484f60"/><path d="m356.046875 136.628906c0-3.75 3.042969-6.789062 6.792969-6.789062s6.792968 3.039062 6.792968 6.789062c0 3.753906-3.042968 6.792969-6.792968 6.792969-3.753906 0-6.792969-3.039063-6.792969-6.792969zm0 0" fill="#272f38"/><path d="m262.171875 127.875c-.175781-3.75 2.71875-6.929688 6.46875-7.105469 3.753906-.167969 6.929687 2.726563 7.097656 6.476563.175781 3.742187-2.71875 6.917968-6.46875 7.097656-.105469 0-.210937.007812-.324219.007812-3.605468 0-6.605468-2.839843-6.773437-6.476562zm0 0" fill="#272f38"/><path d="m227.398438 133.203125c-3.738282-.375-6.457032-3.710937-6.082032-7.441406.378906-3.726563 3.710938-6.457031 7.453125-6.070313 0 0 0 0-.011719 0 3.742188.378906 6.457032 3.710938 6.082032 7.441406-.355469 3.5-3.3125 6.101563-6.75 6.101563-.230469 0-.460938-.011719-.691406-.03125zm0 0" fill="#272f38"/><path d="m302.882812 123.976562c-.722656-3.6875 1.671876-7.25 5.359376-7.984374 3.679687-.71875 7.242187 1.671874 7.972656 5.363281.722656 3.675781-1.671875 7.238281-5.359375 7.972656-.4375.082031-.878907.125-1.316407.125-3.175781 0-6.019531-2.246094-6.65625-5.476563zm0 0" fill="#272f38"/><path d="m186.136719 125.921875c-3.636719-.921875-5.832031-4.621094-4.910157-8.257813.929688-3.632812 4.617188-5.828124 8.253907-4.910156 3.636719.921875 5.839843 4.621094 4.910156 8.253906-.773437 3.085938-3.542969 5.121094-6.570313 5.121094-.554687 0-1.121093-.0625-1.683593-.207031zm0 0" fill="#484f60"/><path d="m342.578125 114.09375c-1.265625-3.535156.574219-7.421875 4.117187-8.683594 3.53125-1.253906 7.417969.585938 8.671876 4.117188 1.265624 3.539062-.585938 7.417968-4.117188 8.683594-.75.269531-1.523438.394531-2.277344.394531-2.789062 0-5.410156-1.734375-6.394531-4.511719zm0 0" fill="#272f38"/><path d="m146.648438 116.925781c-3.40625-1.589843-4.878907-5.625-3.300782-9.03125 1.578125-3.394531 5.621094-4.878906 9.019532-3.289062 3.40625 1.578125 4.878906 5.609375 3.300781 9.015625-1.148438 2.476562-3.605469 3.929687-6.164063 3.929687-.953125 0-1.933594-.199219-2.855468-.625zm0 0" fill="#484f60"/><path d="m328.609375 195.46875v36.894531c0 5.777344-4.074219 10.742188-9.726563 11.902344-4.871093 1.011719-9.761718 1.902344-14.671874 2.664063-14.765626 2.320312-29.675782 3.5625-44.574219 3.742187-.734375.007813-1.453125.019531-2.183594.019531-12.476563.0625-24.953125-.625-37.367187-2.078125-9.027344-1.046875-18.023438-2.5-26.957032-4.335937-5.664062-1.171875-9.761718-6.125-9.761718-11.914063v-36.894531c0-7.648438 6.980468-13.332031 14.496093-11.902344 20.46875 3.886719 41.21875 5.714844 61.960938 5.445313 4.671875-.054688 9.320312-.210938 13.980469-.480469 9.800781-.566406 19.582031-1.589844 29.308593-3.09375 3.730469-.554688 7.441407-1.191406 11.148438-1.902344 7.453125-1.421875 14.347656 4.335938 14.347656 11.933594zm0 0" fill="#d8ebf7"/><path d="m270.558594 223.566406c0-13.105468 10.664062-23.769531 23.773437-23.769531 13.105469 0 23.769531 10.664063 23.769531 23.769531" fill="#e5ded4"/><path d="m193.890625 223.566406c0-13.105468 10.664063-23.769531 23.773437-23.769531 13.105469 0 23.769532 10.664063 23.769532 23.769531" fill="#e5ded4"/><path d="m230.984375 225.921875c0 7.359375-5.964844 13.324219-13.324219 13.324219s-13.324218-5.964844-13.324218-13.324219 5.964843-13.320313 13.324218-13.320313 13.324219 5.960938 13.324219 13.320313zm0 0" fill="#272f38"/><path d="m307.648438 225.921875c0 7.359375-5.964844 13.324219-13.320313 13.324219-7.359375 0-13.324219-5.964844-13.324219-13.324219s5.964844-13.320313 13.324219-13.320313c7.355469 0 13.320313 5.960938 13.320313 13.320313zm0 0" fill="#272f38"/><path d="m228.265625 223.570312c0 3.152344-2.554687 5.710938-5.707031 5.710938s-5.710938-2.558594-5.710938-5.710938c0-3.152343 2.558594-5.707031 5.710938-5.707031s5.707031 2.554688 5.707031 5.707031zm0 0" fill="#fff"/><path d="m305.589844 223.570312c0 3.152344-2.558594 5.710938-5.710938 5.710938s-5.707031-2.558594-5.707031-5.710938c0-3.152343 2.554687-5.707031 5.707031-5.707031s5.710938 2.554688 5.710938 5.707031zm0 0" fill="#fff"/><path d="m303.113281 185.4375-43.476562 65.234375c-.734375.007813-1.453125.019531-2.183594.019531-12.476563.0625-24.953125-.625-37.367187-2.078125l39.738281-59.601562c4.671875-.054688 9.320312-.210938 13.980469-.480469 9.800781-.566406 19.582031-1.589844 29.308593-3.09375zm0 0" fill="#fff"/><path d="m328.609375 210.335938v22.027343c0 5.777344-4.074219 10.742188-9.726563 11.902344-4.871093 1.011719-9.761718 1.902344-14.671874 2.664063zm0 0" fill="#fff"/><path d="m130.96875 309.050781v83.539063h-20.898438v-83.539063c0-7.871093-6.40625-14.265625-14.265624-14.265625h-22.265626v-20.898437h22.265626c19.382812 0 35.164062 15.78125 35.164062 35.164062zm0 0" fill="#125699"/><path d="m130.96875 309.050781v83.539063h-13.40625v-83.539063c0-7.871093-6.40625-14.265625-14.273438-14.265625h-22.257812v-20.898437h14.773438c19.382812 0 35.164062 15.78125 35.164062 35.164062zm0 0" fill="#2385ec"/><path d="m137.402344 350.195312v111.804688h-33.414063c-1.054687-.78125-2.109375-1.578125-3.15625-2.371094v-109.433594zm0 0" fill="#fee887"/><path d="m112.023438 350.195312v111.804688h-8.035157c-1.054687-.78125-2.109375-1.578125-3.15625-2.371094v-109.433594zm0 0" fill="#fd9b3d"/><path d="m145.242188 432.378906v29.746094c0 8.015625-3.542969 15.214844-9.15625 20.09375-4.648438-2.453125-9.226563-5.066406-13.699219-7.816406-10.6875-6.550782-20.863281-13.863282-30.4375-21.867188v-20.15625c0-7.355468 2.988281-14.011718 7.808593-18.839844 2.515626-2.527343 5.546876-4.546874 8.910157-5.894531 3.074219-1.230469 6.417969-1.910156 9.925781-1.910156 14.714844 0 26.648438 11.929687 26.648438 26.644531zm0 0" fill="#e7aa91"/><path d="m125.386719 432.378906v29.746094c0 4.429688-1.085938 8.609375-3 12.277344-10.6875-6.550782-20.863281-13.863282-30.4375-21.867188v-20.15625c0-7.355468 2.988281-14.011718 7.808593-18.839844 2.515626-2.527343 5.546876-4.546874 8.910157-5.894531 9.800781 3.941407 16.71875 13.53125 16.71875 24.734375zm0 0" fill="#f4c1a8"/><path d="m29.5 267.992188-14.980469 14.980468 14.980469 14.984375c8.273438 8.273438 21.6875 8.273438 29.960938 0 8.273437-8.273437 8.273437-21.6875 0-29.960937-8.273438-8.277344-21.6875-8.277344-29.960938-.003906zm0 0" fill="#fee887"/></svg>